<svg xmlns="http://www.w3.org/2000/svg" xmlns:xlink="http://www.w3.org/1999/xlink" width="500" zoomAndPan="magnify" viewBox="0 0 375 374.999991" height="500" preserveAspectRatio="xMidYMid meet" version="1.0"><defs><g/></defs><rect x="-37.5" width="450" fill="#ffffff" y="-37.499999" height="449.999989" fill-opacity="1"/><rect x="-37.5" width="450" fill="#434343" y="-37.499999" height="449.999989" fill-opacity="1"/><g fill="#d4d4d4" fill-opacity="1"><g transform="translate(38.56487, 214.516825)"><g><path d="M 80.710938 41.542969 C 65.445312 40.167969 44.671875 13.265625 53.808594 -12.761719 C 91.722656 -16.015625 93.222656 -28.65625 85.464844 -33.285156 C 77.207031 -38.164062 58.9375 -35.035156 51.679688 -14.265625 C 27.027344 -11.761719 6.632812 0.625 3.503906 25.402344 C 3.128906 25.777344 5.882812 25.402344 6.882812 25.402344 C 9.386719 1.125 27.652344 -9.511719 51.179688 -12.511719 C 43.421875 13.640625 60.1875 42.417969 82.085938 43.796875 C 153.035156 48.300781 134.515625 -91.972656 145.777344 -114.246094 C 149.78125 -114.621094 154.789062 -114.871094 156.789062 -117 L 156.664062 -119.125 C 151.285156 -116.121094 146.152344 -117 135.644531 -117 C 10.136719 -116.121094 47.425781 -62.566406 102.484375 -29.53125 C 103.109375 -29.53125 105.109375 -29.65625 107.238281 -29.53125 C 56.683594 -57.6875 5.378906 -115.621094 140.023438 -114.121094 C 127.757812 -103.859375 142.902344 47.300781 80.710938 41.542969 Z M 84.339844 -30.40625 C 89.09375 -26.777344 88.09375 -18.019531 54.308594 -14.640625 C 61.0625 -33.285156 78.207031 -35.035156 84.339844 -30.40625 Z M 84.339844 -30.40625 "/></g></g></g><g fill="#d4d4d4" fill-opacity="1"><g transform="translate(196.603541, 214.516825)"><g><path d="M 137.019531 -29.53125 C 123.253906 -6.882812 90.71875 38.664062 74.453125 41.417969 C 52.804688 45.171875 45.671875 4.128906 54.308594 -38.664062 C 112.617188 -49.675781 144.527344 -119.25 106.613281 -119.875 C 74.828125 -120.375 52.179688 -74.203125 46.046875 -39.792969 C 2.628906 -38.664062 -19.894531 -97.851562 33.660156 -108.113281 C 36.164062 -105.738281 38.917969 -110.117188 34.160156 -110.367188 C -21.023438 -100.605469 -3.128906 -38.039062 45.671875 -37.789062 C 38.039062 0.25 43.046875 45.921875 72.703125 43.796875 C 91.722656 42.417969 126.757812 -7.757812 139.148438 -29.40625 C 139.148438 -30.03125 137.394531 -30.15625 137.019531 -29.53125 Z M 107.613281 -117.375 C 140.648438 -116.621094 109.617188 -51.804688 54.808594 -40.792969 C 63.441406 -81.335938 84.964844 -117.875 107.613281 -117.375 Z M 107.613281 -117.375 "/></g></g></g></svg>