<svg xmlns="http://www.w3.org/2000/svg" xmlns:xlink="http://www.w3.org/1999/xlink" width="500" zoomAndPan="magnify" viewBox="0 0 375 374.999991" height="500" preserveAspectRatio="xMidYMid meet" version="1.0"><defs><g/></defs><rect x="-37.5" width="450" fill="#ffffff" y="-37.499999" height="449.999989" fill-opacity="1"/><rect x="-37.5" width="450" fill="#ffffff" y="-37.499999" height="449.999989" fill-opacity="1"/><rect x="-37.5" width="450" fill="#434343" y="-37.499999" height="449.999989" fill-opacity="1"/><g fill="#d4d4d4" fill-opacity="1"><g transform="translate(63.669324, 163.085279)"><g><path d="M 69.058594 35.546875 C 55.996094 34.371094 38.222656 11.347656 46.039062 -10.921875 C 78.484375 -13.703125 79.765625 -24.519531 73.128906 -28.480469 C 66.0625 -32.65625 50.429688 -29.980469 44.21875 -12.207031 C 23.128906 -10.066406 5.675781 0.535156 2.996094 21.734375 C 2.675781 22.054688 5.03125 21.734375 5.890625 21.734375 C 8.03125 0.964844 23.664062 -8.136719 43.792969 -10.707031 C 37.152344 11.671875 51.5 36.296875 70.238281 37.472656 C 130.945312 41.328125 115.101562 -78.695312 124.738281 -97.753906 C 128.164062 -98.078125 132.445312 -98.289062 134.160156 -100.109375 L 134.050781 -101.929688 C 129.449219 -99.359375 125.058594 -100.109375 116.0625 -100.109375 C 8.671875 -99.359375 40.578125 -53.535156 87.691406 -25.269531 C 88.226562 -25.269531 89.9375 -25.375 91.757812 -25.269531 C 48.503906 -49.359375 4.605469 -98.933594 119.8125 -97.648438 C 109.320312 -88.867188 122.273438 40.472656 69.058594 35.546875 Z M 72.164062 -26.019531 C 76.234375 -22.914062 75.378906 -15.417969 46.46875 -12.527344 C 52.25 -28.480469 66.917969 -29.980469 72.164062 -26.019531 Z M 72.164062 -26.019531 "/></g></g></g><g fill="#d4d4d4" fill-opacity="1"><g transform="translate(198.896524, 163.085279)"><g><path d="M 117.242188 -25.269531 C 105.464844 -5.890625 77.625 33.085938 63.707031 35.441406 C 45.183594 38.652344 39.082031 3.535156 46.46875 -33.085938 C 96.363281 -42.507812 123.667969 -102.039062 91.222656 -102.574219 C 64.027344 -103 44.648438 -63.492188 39.402344 -34.046875 C 2.25 -33.085938 -17.023438 -83.730469 28.800781 -92.507812 C 30.941406 -90.472656 33.300781 -94.222656 29.230469 -94.4375 C -17.988281 -86.085938 -2.675781 -32.550781 39.082031 -32.335938 C 32.550781 0.214844 36.832031 39.292969 62.207031 37.472656 C 78.484375 36.296875 108.460938 -6.636719 119.0625 -25.160156 C 119.0625 -25.695312 117.5625 -25.804688 117.242188 -25.269531 Z M 92.082031 -100.433594 C 120.347656 -99.789062 93.792969 -44.328125 46.898438 -34.90625 C 54.285156 -69.59375 72.699219 -100.859375 92.082031 -100.433594 Z M 92.082031 -100.433594 "/></g></g></g><g fill="#d4d4d4" fill-opacity="1"><g transform="translate(47.083524, 249.521164)"><g><path d="M 10.453125 -23.34375 C 10.503906 -23.34375 10.53125 -23.265625 10.53125 -23.109375 C 10.53125 -22.960938 10.503906 -22.890625 10.453125 -22.890625 C 9.628906 -22.890625 9.03125 -22.8125 8.65625 -22.65625 C 8.289062 -22.507812 8.035156 -22.253906 7.890625 -21.890625 C 7.753906 -21.535156 7.6875 -20.984375 7.6875 -20.234375 L 7.6875 1.046875 C 7.6875 3.515625 7.113281 5.472656 5.96875 6.921875 C 4.820312 8.378906 3.171875 9.109375 1.015625 9.109375 C 0.160156 9.109375 -0.503906 8.960938 -0.984375 8.671875 C -1.472656 8.390625 -1.71875 8 -1.71875 7.5 C -1.71875 7.132812 -1.601562 6.835938 -1.375 6.609375 C -1.15625 6.390625 -0.847656 6.28125 -0.453125 6.28125 C -0.0234375 6.28125 0.296875 6.367188 0.515625 6.546875 C 0.742188 6.734375 0.984375 7.015625 1.234375 7.390625 C 1.453125 7.742188 1.648438 7.992188 1.828125 8.140625 C 2.003906 8.285156 2.253906 8.359375 2.578125 8.359375 C 3.472656 8.359375 4.140625 7.84375 4.578125 6.8125 C 5.015625 5.78125 5.234375 4.117188 5.234375 1.828125 L 5.234375 -20.3125 C 5.234375 -21.0625 5.144531 -21.609375 4.96875 -21.953125 C 4.789062 -22.304688 4.445312 -22.550781 3.9375 -22.6875 C 3.425781 -22.820312 2.632812 -22.890625 1.5625 -22.890625 C 1.519531 -22.890625 1.5 -22.960938 1.5 -23.109375 C 1.5 -23.265625 1.519531 -23.34375 1.5625 -23.34375 L 3.734375 -23.296875 C 4.878906 -23.253906 5.773438 -23.234375 6.421875 -23.234375 C 7.066406 -23.234375 7.863281 -23.253906 8.8125 -23.296875 Z M 10.453125 -23.34375 "/></g></g></g><g fill="#d4d4d4" fill-opacity="1"><g transform="translate(64.038185, 249.521164)"><g><path d="M 26.109375 -0.453125 C 26.203125 -0.453125 26.25 -0.375 26.25 -0.21875 C 26.25 -0.0703125 26.203125 0 26.109375 0 C 25.628906 0 24.894531 -0.0234375 23.90625 -0.078125 C 22.90625 -0.128906 22.179688 -0.15625 21.734375 -0.15625 C 21.179688 -0.15625 20.484375 -0.128906 19.640625 -0.078125 C 18.847656 -0.0234375 18.238281 0 17.8125 0 C 17.707031 0 17.65625 -0.0703125 17.65625 -0.21875 C 17.65625 -0.375 17.707031 -0.453125 17.8125 -0.453125 C 18.726562 -0.453125 19.398438 -0.535156 19.828125 -0.703125 C 20.253906 -0.878906 20.46875 -1.179688 20.46875 -1.609375 C 20.46875 -1.953125 20.304688 -2.488281 19.984375 -3.21875 L 16.65625 -10.265625 L 7.765625 -10.265625 L 5.421875 -4.75 C 5.066406 -3.894531 4.890625 -3.207031 4.890625 -2.6875 C 4.890625 -1.914062 5.191406 -1.347656 5.796875 -0.984375 C 6.410156 -0.628906 7.328125 -0.453125 8.546875 -0.453125 C 8.671875 -0.453125 8.734375 -0.375 8.734375 -0.21875 C 8.734375 -0.0703125 8.671875 0 8.546875 0 C 8.097656 0 7.453125 -0.0234375 6.609375 -0.078125 C 5.660156 -0.128906 4.835938 -0.15625 4.140625 -0.15625 C 3.492188 -0.15625 2.75 -0.128906 1.90625 -0.078125 C 1.15625 -0.0234375 0.53125 0 0.03125 0 C -0.09375 0 -0.15625 -0.0703125 -0.15625 -0.21875 C -0.15625 -0.375 -0.09375 -0.453125 0.03125 -0.453125 C 0.726562 -0.453125 1.320312 -0.582031 1.8125 -0.84375 C 2.300781 -1.101562 2.757812 -1.5625 3.1875 -2.21875 C 3.625 -2.882812 4.101562 -3.835938 4.625 -5.078125 L 12.515625 -23.671875 C 12.554688 -23.742188 12.640625 -23.78125 12.765625 -23.78125 C 12.890625 -23.78125 12.96875 -23.742188 13 -23.671875 L 21.8125 -5.109375 C 22.65625 -3.273438 23.375 -2.039062 23.96875 -1.40625 C 24.570312 -0.769531 25.285156 -0.453125 26.109375 -0.453125 Z M 8.0625 -11.015625 L 16.3125 -11.015625 L 11.953125 -20.234375 Z M 8.0625 -11.015625 "/></g></g></g><g fill="#d4d4d4" fill-opacity="1"><g transform="translate(95.183011, 249.521164)"><g><path d="M 30.328125 -0.453125 C 30.398438 -0.453125 30.4375 -0.375 30.4375 -0.21875 C 30.4375 -0.0703125 30.398438 0 30.328125 0 C 29.554688 0 28.945312 -0.0078125 28.5 -0.03125 L 25.921875 -0.078125 L 23.53125 -0.03125 C 23.125 -0.0078125 22.5625 0 21.84375 0 C 21.789062 0 21.765625 -0.0703125 21.765625 -0.21875 C 21.765625 -0.375 21.789062 -0.453125 21.84375 -0.453125 C 22.6875 -0.453125 23.3125 -0.519531 23.71875 -0.65625 C 24.132812 -0.789062 24.410156 -1.03125 24.546875 -1.375 C 24.691406 -1.726562 24.738281 -2.28125 24.6875 -3.03125 L 24.015625 -20.015625 L 15.5 -0.265625 C 15.445312 -0.160156 15.347656 -0.109375 15.203125 -0.109375 C 15.078125 -0.109375 14.960938 -0.160156 14.859375 -0.265625 L 5.671875 -19.796875 L 5.34375 -4.078125 C 5.3125 -2.753906 5.53125 -1.816406 6 -1.265625 C 6.476562 -0.722656 7.316406 -0.453125 8.515625 -0.453125 C 8.566406 -0.453125 8.59375 -0.375 8.59375 -0.21875 C 8.59375 -0.0703125 8.566406 0 8.515625 0 C 7.816406 0 7.28125 -0.0078125 6.90625 -0.03125 L 4.890625 -0.078125 L 2.953125 -0.03125 C 2.597656 -0.0078125 2.097656 0 1.453125 0 C 1.398438 0 1.375 -0.0703125 1.375 -0.21875 C 1.375 -0.375 1.398438 -0.453125 1.453125 -0.453125 C 2.503906 -0.453125 3.257812 -0.726562 3.71875 -1.28125 C 4.175781 -1.84375 4.414062 -2.773438 4.4375 -4.078125 L 4.78125 -21.390625 C 4.03125 -22.390625 3.007812 -22.890625 1.71875 -22.890625 C 1.664062 -22.890625 1.640625 -22.960938 1.640625 -23.109375 C 1.640625 -23.265625 1.664062 -23.34375 1.71875 -23.34375 L 3.09375 -23.296875 C 3.34375 -23.273438 3.691406 -23.265625 4.140625 -23.265625 C 4.585938 -23.265625 4.96875 -23.273438 5.28125 -23.296875 C 5.59375 -23.328125 5.835938 -23.34375 6.015625 -23.34375 C 6.335938 -23.34375 6.601562 -23.222656 6.8125 -22.984375 C 7.019531 -22.742188 7.328125 -22.210938 7.734375 -21.390625 L 16.0625 -3.84375 L 24.203125 -22.40625 C 24.472656 -23.03125 24.84375 -23.34375 25.3125 -23.34375 C 25.4375 -23.34375 25.617188 -23.328125 25.859375 -23.296875 C 26.097656 -23.273438 26.414062 -23.265625 26.8125 -23.265625 L 28.5625 -23.296875 C 28.84375 -23.328125 29.253906 -23.34375 29.796875 -23.34375 C 29.867188 -23.34375 29.90625 -23.265625 29.90625 -23.109375 C 29.90625 -22.960938 29.867188 -22.890625 29.796875 -22.890625 C 28.554688 -22.890625 27.664062 -22.707031 27.125 -22.34375 C 26.59375 -21.988281 26.335938 -21.3125 26.359375 -20.3125 L 27.109375 -3.03125 C 27.140625 -2.25 27.234375 -1.6875 27.390625 -1.34375 C 27.554688 -1 27.847656 -0.765625 28.265625 -0.640625 C 28.691406 -0.515625 29.378906 -0.453125 30.328125 -0.453125 Z M 30.328125 -0.453125 "/></g></g></g><g fill="#d4d4d4" fill-opacity="1"><g transform="translate(131.331753, 249.521164)"><g><path d="M 17.734375 -5.5625 C 17.734375 -5.613281 17.785156 -5.640625 17.890625 -5.640625 C 17.960938 -5.640625 18.03125 -5.625 18.09375 -5.59375 C 18.15625 -5.570312 18.1875 -5.535156 18.1875 -5.484375 C 17.957031 -3.921875 17.84375 -2.28125 17.84375 -0.5625 C 17.84375 -0.363281 17.800781 -0.21875 17.71875 -0.125 C 17.632812 -0.0390625 17.476562 0 17.25 0 L 1.609375 0 C 1.554688 0 1.53125 -0.0703125 1.53125 -0.21875 C 1.53125 -0.375 1.554688 -0.453125 1.609375 -0.453125 C 2.554688 -0.453125 3.242188 -0.515625 3.671875 -0.640625 C 4.109375 -0.765625 4.40625 -1.003906 4.5625 -1.359375 C 4.726562 -1.722656 4.8125 -2.28125 4.8125 -3.03125 L 4.8125 -20.3125 C 4.8125 -21.0625 4.726562 -21.609375 4.5625 -21.953125 C 4.40625 -22.304688 4.109375 -22.550781 3.671875 -22.6875 C 3.242188 -22.820312 2.554688 -22.890625 1.609375 -22.890625 C 1.554688 -22.890625 1.53125 -22.960938 1.53125 -23.109375 C 1.53125 -23.265625 1.554688 -23.34375 1.609375 -23.34375 L 16.625 -23.34375 C 16.84375 -23.34375 16.953125 -23.226562 16.953125 -23 L 17.03125 -18.40625 C 17.03125 -18.332031 16.96875 -18.289062 16.84375 -18.28125 C 16.71875 -18.269531 16.644531 -18.300781 16.625 -18.375 C 16.539062 -19.695312 16.140625 -20.722656 15.421875 -21.453125 C 14.703125 -22.191406 13.742188 -22.5625 12.546875 -22.5625 L 10.265625 -22.5625 C 9.398438 -22.5625 8.757812 -22.488281 8.34375 -22.34375 C 7.9375 -22.207031 7.648438 -21.972656 7.484375 -21.640625 C 7.328125 -21.304688 7.25 -20.800781 7.25 -20.125 L 7.25 -12.546875 L 11.796875 -12.546875 C 12.992188 -12.546875 13.847656 -12.742188 14.359375 -13.140625 C 14.867188 -13.546875 15.125 -14.21875 15.125 -15.15625 C 15.125 -15.207031 15.195312 -15.234375 15.34375 -15.234375 C 15.5 -15.234375 15.578125 -15.207031 15.578125 -15.15625 L 15.53125 -12.140625 C 15.53125 -11.410156 15.546875 -10.863281 15.578125 -10.5 L 15.609375 -8.703125 C 15.609375 -8.648438 15.53125 -8.625 15.375 -8.625 C 15.226562 -8.625 15.15625 -8.648438 15.15625 -8.703125 C 15.15625 -9.796875 14.890625 -10.578125 14.359375 -11.046875 C 13.828125 -11.523438 12.9375 -11.765625 11.6875 -11.765625 L 7.25 -11.765625 L 7.25 -3.171875 C 7.25 -2.472656 7.320312 -1.960938 7.46875 -1.640625 C 7.613281 -1.316406 7.882812 -1.09375 8.28125 -0.96875 C 8.6875 -0.84375 9.3125 -0.78125 10.15625 -0.78125 L 13.140625 -0.78125 C 14.335938 -0.78125 15.332031 -1.203125 16.125 -2.046875 C 16.925781 -2.898438 17.460938 -4.070312 17.734375 -5.5625 Z M 17.734375 -5.5625 "/></g></g></g><g fill="#d4d4d4" fill-opacity="1"><g transform="translate(156.315066, 249.521164)"><g><path d="M 5.421875 -18.96875 C 5.421875 -18 5.65625 -17.148438 6.125 -16.421875 C 6.59375 -15.703125 7.171875 -15.097656 7.859375 -14.609375 C 8.546875 -14.128906 9.488281 -13.53125 10.6875 -12.8125 C 12 -12.007812 13.007812 -11.347656 13.71875 -10.828125 C 14.425781 -10.304688 15.035156 -9.640625 15.546875 -8.828125 C 16.054688 -8.023438 16.3125 -7.0625 16.3125 -5.9375 C 16.3125 -4.738281 16.015625 -3.65625 15.421875 -2.6875 C 14.828125 -1.71875 13.945312 -0.953125 12.78125 -0.390625 C 11.625 0.171875 10.238281 0.453125 8.625 0.453125 C 6.707031 0.453125 4.953125 0.015625 3.359375 -0.859375 C 3.234375 -0.929688 3.148438 -1.015625 3.109375 -1.109375 C 3.078125 -1.210938 3.050781 -1.363281 3.03125 -1.5625 L 2.546875 -6.640625 C 2.515625 -6.742188 2.566406 -6.804688 2.703125 -6.828125 C 2.835938 -6.859375 2.921875 -6.820312 2.953125 -6.71875 C 3.347656 -4.925781 4.085938 -3.382812 5.171875 -2.09375 C 6.253906 -0.800781 7.691406 -0.15625 9.484375 -0.15625 C 10.734375 -0.15625 11.785156 -0.492188 12.640625 -1.171875 C 13.492188 -1.859375 13.921875 -2.945312 13.921875 -4.4375 C 13.921875 -5.5625 13.671875 -6.535156 13.171875 -7.359375 C 12.679688 -8.179688 12.082031 -8.859375 11.375 -9.390625 C 10.664062 -9.921875 9.703125 -10.550781 8.484375 -11.28125 C 7.285156 -12 6.34375 -12.617188 5.65625 -13.140625 C 4.96875 -13.660156 4.390625 -14.316406 3.921875 -15.109375 C 3.453125 -15.910156 3.21875 -16.847656 3.21875 -17.921875 C 3.21875 -19.171875 3.546875 -20.234375 4.203125 -21.109375 C 4.859375 -21.992188 5.710938 -22.65625 6.765625 -23.09375 C 7.828125 -23.53125 8.957031 -23.75 10.15625 -23.75 C 11.625 -23.75 13.082031 -23.453125 14.53125 -22.859375 C 14.90625 -22.734375 15.09375 -22.519531 15.09375 -22.21875 L 15.34375 -17.921875 C 15.34375 -17.828125 15.28125 -17.78125 15.15625 -17.78125 C 15.03125 -17.78125 14.957031 -17.828125 14.9375 -17.921875 C 14.738281 -19.210938 14.203125 -20.410156 13.328125 -21.515625 C 12.460938 -22.628906 11.207031 -23.1875 9.5625 -23.1875 C 8.164062 -23.1875 7.125 -22.78125 6.4375 -21.96875 C 5.757812 -21.164062 5.421875 -20.164062 5.421875 -18.96875 Z M 5.421875 -18.96875 "/></g></g></g><g fill="#d4d4d4" fill-opacity="1"><g transform="translate(179.580614, 249.521164)"><g/></g></g><g fill="#d4d4d4" fill-opacity="1"><g transform="translate(193.249121, 249.521164)"><g><path d="M 15.34375 -23.75 C 16.914062 -23.75 18.234375 -23.632812 19.296875 -23.40625 C 20.367188 -23.1875 21.441406 -22.800781 22.515625 -22.25 C 22.691406 -22.15625 22.789062 -22.070312 22.8125 -22 C 22.84375 -21.925781 22.878906 -21.738281 22.921875 -21.4375 L 23.375 -16.984375 C 23.375 -16.910156 23.304688 -16.867188 23.171875 -16.859375 C 23.035156 -16.847656 22.953125 -16.878906 22.921875 -16.953125 C 21.785156 -21.109375 19.222656 -23.1875 15.234375 -23.1875 C 13.140625 -23.1875 11.296875 -22.722656 9.703125 -21.796875 C 8.109375 -20.878906 6.875 -19.566406 6 -17.859375 C 5.132812 -16.160156 4.703125 -14.175781 4.703125 -11.90625 C 4.703125 -9.738281 5.179688 -7.753906 6.140625 -5.953125 C 7.097656 -4.148438 8.390625 -2.722656 10.015625 -1.671875 C 11.648438 -0.628906 13.425781 -0.109375 15.34375 -0.109375 C 17.382812 -0.109375 19.039062 -0.601562 20.3125 -1.59375 C 21.582031 -2.59375 22.554688 -4.113281 23.234375 -6.15625 C 23.234375 -6.207031 23.296875 -6.234375 23.421875 -6.234375 C 23.585938 -6.234375 23.671875 -6.195312 23.671875 -6.125 L 23.296875 -2.015625 C 23.273438 -1.710938 23.238281 -1.523438 23.1875 -1.453125 C 23.132812 -1.378906 23.035156 -1.289062 22.890625 -1.1875 C 21.597656 -0.570312 20.382812 -0.140625 19.25 0.109375 C 18.113281 0.359375 16.8125 0.484375 15.34375 0.484375 C 12.726562 0.484375 10.394531 -0.03125 8.34375 -1.0625 C 6.289062 -2.09375 4.691406 -3.539062 3.546875 -5.40625 C 2.398438 -7.28125 1.828125 -9.425781 1.828125 -11.84375 C 1.828125 -14.175781 2.410156 -16.242188 3.578125 -18.046875 C 4.753906 -19.859375 6.367188 -21.257812 8.421875 -22.25 C 10.472656 -23.25 12.78125 -23.75 15.34375 -23.75 Z M 15.34375 -23.75 "/></g></g></g><g fill="#d4d4d4" fill-opacity="1"><g transform="translate(223.796474, 249.521164)"><g><path d="M 13.671875 0.453125 C 11.347656 0.453125 9.285156 -0.0859375 7.484375 -1.171875 C 5.679688 -2.253906 4.285156 -3.722656 3.296875 -5.578125 C 2.316406 -7.429688 1.828125 -9.457031 1.828125 -11.65625 C 1.828125 -14.21875 2.472656 -16.410156 3.765625 -18.234375 C 5.066406 -20.066406 6.726562 -21.441406 8.75 -22.359375 C 10.78125 -23.285156 12.851562 -23.75 14.96875 -23.75 C 17.332031 -23.75 19.410156 -23.191406 21.203125 -22.078125 C 23.003906 -20.972656 24.382812 -19.507812 25.34375 -17.6875 C 26.300781 -15.875 26.78125 -13.945312 26.78125 -11.90625 C 26.78125 -9.644531 26.179688 -7.566406 24.984375 -5.671875 C 23.785156 -3.785156 22.179688 -2.289062 20.171875 -1.1875 C 18.171875 -0.09375 16.003906 0.453125 13.671875 0.453125 Z M 14.96875 -0.34375 C 16.664062 -0.34375 18.191406 -0.75 19.546875 -1.5625 C 20.898438 -2.382812 21.96875 -3.59375 22.75 -5.1875 C 23.539062 -6.78125 23.9375 -8.671875 23.9375 -10.859375 C 23.9375 -13.203125 23.5 -15.28125 22.625 -17.09375 C 21.757812 -18.914062 20.535156 -20.335938 18.953125 -21.359375 C 17.367188 -22.378906 15.519531 -22.890625 13.40625 -22.890625 C 10.664062 -22.890625 8.523438 -22.003906 6.984375 -20.234375 C 5.441406 -18.472656 4.671875 -16.046875 4.671875 -12.953125 C 4.671875 -10.617188 5.101562 -8.484375 5.96875 -6.546875 C 6.84375 -4.617188 8.0625 -3.101562 9.625 -2 C 11.195312 -0.894531 12.976562 -0.34375 14.96875 -0.34375 Z M 14.96875 -0.34375 "/></g></g></g><g fill="#d4d4d4" fill-opacity="1"><g transform="translate(257.331232, 249.521164)"><g><path d="M 25.5 -0.453125 C 25.550781 -0.453125 25.578125 -0.375 25.578125 -0.21875 C 25.578125 -0.0703125 25.550781 0 25.5 0 L 20.6875 0 C 20.0625 0 18.890625 -1.03125 17.171875 -3.09375 C 15.453125 -5.164062 13.410156 -8.003906 11.046875 -11.609375 C 10.378906 -11.460938 9.6875 -11.390625 8.96875 -11.390625 C 8.8125 -11.390625 8.25 -11.425781 7.28125 -11.5 L 7.28125 -3.03125 C 7.28125 -2.25 7.351562 -1.6875 7.5 -1.34375 C 7.65625 -1 7.945312 -0.765625 8.375 -0.640625 C 8.8125 -0.515625 9.503906 -0.453125 10.453125 -0.453125 C 10.523438 -0.453125 10.5625 -0.375 10.5625 -0.21875 C 10.5625 -0.0703125 10.523438 0 10.453125 0 C 9.679688 0 9.070312 -0.0078125 8.625 -0.03125 L 6.046875 -0.078125 L 3.515625 -0.03125 C 3.066406 -0.0078125 2.429688 0 1.609375 0 C 1.554688 0 1.53125 -0.0703125 1.53125 -0.21875 C 1.53125 -0.375 1.554688 -0.453125 1.609375 -0.453125 C 2.554688 -0.453125 3.253906 -0.515625 3.703125 -0.640625 C 4.148438 -0.765625 4.453125 -1.003906 4.609375 -1.359375 C 4.773438 -1.722656 4.859375 -2.28125 4.859375 -3.03125 L 4.859375 -20.3125 C 4.859375 -21.0625 4.78125 -21.609375 4.625 -21.953125 C 4.476562 -22.304688 4.1875 -22.550781 3.75 -22.6875 C 3.3125 -22.820312 2.625 -22.890625 1.6875 -22.890625 C 1.601562 -22.890625 1.5625 -22.960938 1.5625 -23.109375 C 1.5625 -23.265625 1.601562 -23.34375 1.6875 -23.34375 L 3.515625 -23.296875 C 4.554688 -23.253906 5.398438 -23.234375 6.046875 -23.234375 C 6.597656 -23.234375 7.109375 -23.242188 7.578125 -23.265625 C 8.054688 -23.285156 8.457031 -23.3125 8.78125 -23.34375 C 9.695312 -23.414062 10.53125 -23.453125 11.28125 -23.453125 C 13.25 -23.453125 14.765625 -23.003906 15.828125 -22.109375 C 16.898438 -21.210938 17.4375 -20.015625 17.4375 -18.515625 C 17.4375 -17.171875 17.046875 -15.957031 16.265625 -14.875 C 15.484375 -13.789062 14.441406 -12.941406 13.140625 -12.328125 C 15.234375 -9.316406 16.992188 -6.957031 18.421875 -5.25 C 19.859375 -3.539062 21.128906 -2.3125 22.234375 -1.5625 C 23.347656 -0.820312 24.4375 -0.453125 25.5 -0.453125 Z M 7.28125 -12.390625 C 7.90625 -12.296875 8.640625 -12.25 9.484375 -12.25 C 11.421875 -12.25 12.804688 -12.671875 13.640625 -13.515625 C 14.484375 -14.359375 14.90625 -15.664062 14.90625 -17.4375 C 14.90625 -19.382812 14.472656 -20.78125 13.609375 -21.625 C 12.753906 -22.46875 11.503906 -22.890625 9.859375 -22.890625 C 8.890625 -22.890625 8.21875 -22.710938 7.84375 -22.359375 C 7.46875 -22.015625 7.28125 -21.304688 7.28125 -20.234375 Z M 7.28125 -12.390625 "/></g></g></g><g fill="#d4d4d4" fill-opacity="1"><g transform="translate(287.393126, 249.521164)"><g><path d="M 17.734375 -5.5625 C 17.734375 -5.613281 17.785156 -5.640625 17.890625 -5.640625 C 17.960938 -5.640625 18.03125 -5.625 18.09375 -5.59375 C 18.15625 -5.570312 18.1875 -5.535156 18.1875 -5.484375 C 17.957031 -3.921875 17.84375 -2.28125 17.84375 -0.5625 C 17.84375 -0.363281 17.800781 -0.21875 17.71875 -0.125 C 17.632812 -0.0390625 17.476562 0 17.25 0 L 1.609375 0 C 1.554688 0 1.53125 -0.0703125 1.53125 -0.21875 C 1.53125 -0.375 1.554688 -0.453125 1.609375 -0.453125 C 2.554688 -0.453125 3.242188 -0.515625 3.671875 -0.640625 C 4.109375 -0.765625 4.40625 -1.003906 4.5625 -1.359375 C 4.726562 -1.722656 4.8125 -2.28125 4.8125 -3.03125 L 4.8125 -20.3125 C 4.8125 -21.0625 4.726562 -21.609375 4.5625 -21.953125 C 4.40625 -22.304688 4.109375 -22.550781 3.671875 -22.6875 C 3.242188 -22.820312 2.554688 -22.890625 1.609375 -22.890625 C 1.554688 -22.890625 1.53125 -22.960938 1.53125 -23.109375 C 1.53125 -23.265625 1.554688 -23.34375 1.609375 -23.34375 L 16.625 -23.34375 C 16.84375 -23.34375 16.953125 -23.226562 16.953125 -23 L 17.03125 -18.40625 C 17.03125 -18.332031 16.96875 -18.289062 16.84375 -18.28125 C 16.71875 -18.269531 16.644531 -18.300781 16.625 -18.375 C 16.539062 -19.695312 16.140625 -20.722656 15.421875 -21.453125 C 14.703125 -22.191406 13.742188 -22.5625 12.546875 -22.5625 L 10.265625 -22.5625 C 9.398438 -22.5625 8.757812 -22.488281 8.34375 -22.34375 C 7.9375 -22.207031 7.648438 -21.972656 7.484375 -21.640625 C 7.328125 -21.304688 7.25 -20.800781 7.25 -20.125 L 7.25 -12.546875 L 11.796875 -12.546875 C 12.992188 -12.546875 13.847656 -12.742188 14.359375 -13.140625 C 14.867188 -13.546875 15.125 -14.21875 15.125 -15.15625 C 15.125 -15.207031 15.195312 -15.234375 15.34375 -15.234375 C 15.5 -15.234375 15.578125 -15.207031 15.578125 -15.15625 L 15.53125 -12.140625 C 15.53125 -11.410156 15.546875 -10.863281 15.578125 -10.5 L 15.609375 -8.703125 C 15.609375 -8.648438 15.53125 -8.625 15.375 -8.625 C 15.226562 -8.625 15.15625 -8.648438 15.15625 -8.703125 C 15.15625 -9.796875 14.890625 -10.578125 14.359375 -11.046875 C 13.828125 -11.523438 12.9375 -11.765625 11.6875 -11.765625 L 7.25 -11.765625 L 7.25 -3.171875 C 7.25 -2.472656 7.320312 -1.960938 7.46875 -1.640625 C 7.613281 -1.316406 7.882812 -1.09375 8.28125 -0.96875 C 8.6875 -0.84375 9.3125 -0.78125 10.15625 -0.78125 L 13.140625 -0.78125 C 14.335938 -0.78125 15.332031 -1.203125 16.125 -2.046875 C 16.925781 -2.898438 17.460938 -4.070312 17.734375 -5.5625 Z M 17.734375 -5.5625 "/></g></g></g><g fill="#d4d4d4" fill-opacity="1"><g transform="translate(312.376439, 249.521164)"><g><path d="M 22.921875 -23.34375 C 22.972656 -23.34375 23 -23.265625 23 -23.109375 C 23 -22.960938 22.972656 -22.890625 22.921875 -22.890625 C 22.023438 -22.890625 21.117188 -22.554688 20.203125 -21.890625 C 19.285156 -21.234375 18.460938 -20.332031 17.734375 -19.1875 L 12.734375 -11.5 L 12.734375 -3.03125 C 12.734375 -2.25 12.804688 -1.6875 12.953125 -1.34375 C 13.109375 -1 13.398438 -0.765625 13.828125 -0.640625 C 14.265625 -0.515625 14.957031 -0.453125 15.90625 -0.453125 C 15.976562 -0.453125 16.015625 -0.375 16.015625 -0.21875 C 16.015625 -0.0703125 15.976562 0 15.90625 0 C 15.132812 0 14.535156 -0.0078125 14.109375 -0.03125 L 11.5 -0.078125 L 8.921875 -0.03125 C 8.472656 -0.0078125 7.863281 0 7.09375 0 C 7.019531 0 6.984375 -0.0703125 6.984375 -0.21875 C 6.984375 -0.375 7.019531 -0.453125 7.09375 -0.453125 C 8.039062 -0.453125 8.734375 -0.515625 9.171875 -0.640625 C 9.609375 -0.765625 9.90625 -1.003906 10.0625 -1.359375 C 10.226562 -1.722656 10.3125 -2.28125 10.3125 -3.03125 L 10.3125 -10.90625 L 4.109375 -19.984375 C 3.410156 -21.078125 2.75 -21.832031 2.125 -22.25 C 1.5 -22.675781 0.78125 -22.890625 -0.03125 -22.890625 C -0.113281 -22.890625 -0.15625 -22.960938 -0.15625 -23.109375 C -0.15625 -23.265625 -0.113281 -23.34375 -0.03125 -23.34375 C 0.257812 -23.34375 0.707031 -23.316406 1.3125 -23.265625 L 2.609375 -23.234375 C 3.460938 -23.234375 4.535156 -23.253906 5.828125 -23.296875 L 7.84375 -23.34375 C 7.894531 -23.34375 7.921875 -23.265625 7.921875 -23.109375 C 7.921875 -22.960938 7.894531 -22.890625 7.84375 -22.890625 C 6.550781 -22.890625 5.90625 -22.628906 5.90625 -22.109375 C 5.90625 -21.835938 6.03125 -21.523438 6.28125 -21.171875 L 12.28125 -12.359375 L 16.84375 -19.34375 C 17.382812 -20.21875 17.65625 -20.953125 17.65625 -21.546875 C 17.65625 -22.441406 16.984375 -22.890625 15.640625 -22.890625 C 15.597656 -22.890625 15.578125 -22.960938 15.578125 -23.109375 C 15.578125 -23.265625 15.597656 -23.34375 15.640625 -23.34375 L 17.40625 -23.296875 C 18.351562 -23.253906 19.222656 -23.234375 20.015625 -23.234375 C 20.441406 -23.234375 20.953125 -23.253906 21.546875 -23.296875 Z M 22.921875 -23.34375 "/></g></g></g><g fill="#d4d4d4" fill-opacity="1"><g transform="translate(71.530428, 287.745167)"><g><path d="M 4.828125 -14.890625 C 4.828125 -14.535156 4.910156 -14.097656 5.078125 -13.578125 C 5.242188 -13.054688 5.351562 -12.710938 5.40625 -12.546875 C 5.570312 -12.035156 5.742188 -11.507812 5.921875 -10.96875 L 9.109375 -1.328125 L 12.109375 -10.71875 C 11.265625 -13.15625 10.675781 -14.585938 10.34375 -15.015625 C 10.207031 -15.171875 10.019531 -15.320312 9.78125 -15.46875 C 9.550781 -15.613281 9.328125 -15.695312 9.109375 -15.71875 C 8.898438 -15.738281 8.601562 -15.75 8.21875 -15.75 L 8.171875 -16.015625 L 14.328125 -16.015625 L 14.28125 -15.75 C 13.6875 -15.75 13.273438 -15.691406 13.046875 -15.578125 C 12.816406 -15.460938 12.703125 -15.179688 12.703125 -14.734375 C 12.703125 -14.285156 13.050781 -13.03125 13.75 -10.96875 L 16.984375 -1.328125 L 20 -10.96875 C 20.601562 -12.882812 20.90625 -14.1875 20.90625 -14.875 C 20.90625 -15.226562 20.757812 -15.460938 20.46875 -15.578125 C 20.1875 -15.691406 19.75 -15.75 19.15625 -15.75 L 19.109375 -16.015625 L 24.671875 -16.015625 L 24.65625 -15.75 C 23.894531 -15.75 23.328125 -15.648438 22.953125 -15.453125 C 22.585938 -15.265625 22.238281 -14.847656 21.90625 -14.203125 C 21.570312 -13.566406 21.160156 -12.488281 20.671875 -10.96875 L 17.171875 0.109375 L 15.703125 0.109375 L 12.390625 -9.78125 L 9.3125 0.109375 L 7.875 0.109375 L 4.171875 -10.96875 C 3.753906 -12.195312 3.441406 -13.082031 3.234375 -13.625 C 3.035156 -14.164062 2.785156 -14.625 2.484375 -15 C 2.179688 -15.375 1.894531 -15.59375 1.625 -15.65625 C 1.351562 -15.71875 0.929688 -15.75 0.359375 -15.75 L 0.328125 -16.015625 L 6.484375 -16.015625 L 6.4375 -15.75 C 5.84375 -15.75 5.425781 -15.691406 5.1875 -15.578125 C 4.945312 -15.472656 4.828125 -15.242188 4.828125 -14.890625 Z M 4.828125 -14.890625 "/></g></g></g><g fill="#d4d4d4" fill-opacity="1"><g transform="translate(99.522353, 287.745167)"><g><path d="M 12.6875 0 L 1.140625 0 L 1.1875 -0.28125 C 1.945312 -0.28125 2.503906 -0.421875 2.859375 -0.703125 C 3.242188 -1.023438 3.4375 -2.515625 3.4375 -5.171875 L 3.4375 -10.84375 C 3.4375 -12.476562 3.382812 -13.597656 3.28125 -14.203125 C 3.1875 -14.804688 3.046875 -15.1875 2.859375 -15.34375 C 2.503906 -15.625 1.945312 -15.765625 1.1875 -15.765625 L 1.140625 -16.015625 L 11.828125 -16.015625 L 11.828125 -12.734375 L 11.5625 -12.765625 C 11.5625 -13.796875 11.019531 -14.507812 9.9375 -14.90625 C 8.863281 -15.300781 7.222656 -15.5 5.015625 -15.5 L 5.015625 -8.28125 C 6.472656 -8.28125 7.523438 -8.359375 8.171875 -8.515625 C 8.816406 -8.671875 9.226562 -8.90625 9.40625 -9.21875 C 9.59375 -9.53125 9.6875 -10.050781 9.6875 -10.78125 L 9.9375 -10.828125 L 9.9375 -5.265625 L 9.6875 -5.3125 C 9.6875 -6.0625 9.59375 -6.585938 9.40625 -6.890625 C 9.226562 -7.191406 8.816406 -7.414062 8.171875 -7.5625 C 7.523438 -7.707031 6.472656 -7.78125 5.015625 -7.78125 L 5.015625 -4.828125 C 5.015625 -3.210938 5.070312 -2.132812 5.1875 -1.59375 C 5.300781 -1.0625 5.554688 -0.707031 5.953125 -0.53125 C 10.253906 -0.53125 12.40625 -1.441406 12.40625 -3.265625 L 12.6875 -3.3125 Z M 12.6875 0 "/></g></g></g><g fill="#d4d4d4" fill-opacity="1"><g transform="translate(116.643078, 287.745167)"><g><path d="M 13.078125 -4.484375 C 13.078125 -2.960938 12.488281 -1.832031 11.3125 -1.09375 C 10.144531 -0.363281 8.550781 0 6.53125 0 L 1.140625 0 L 1.1875 -0.28125 C 1.570312 -0.28125 1.867188 -0.289062 2.078125 -0.3125 C 2.296875 -0.34375 2.5 -0.425781 2.6875 -0.5625 C 2.875 -0.707031 3.007812 -0.867188 3.09375 -1.046875 C 3.1875 -1.222656 3.257812 -1.515625 3.3125 -1.921875 C 3.394531 -2.453125 3.4375 -3.535156 3.4375 -5.171875 L 3.4375 -10.84375 C 3.4375 -13.132812 3.328125 -14.507812 3.109375 -14.96875 C 3.015625 -15.15625 2.875 -15.316406 2.6875 -15.453125 C 2.5 -15.585938 2.296875 -15.671875 2.078125 -15.703125 C 1.867188 -15.734375 1.570312 -15.75 1.1875 -15.75 L 1.140625 -16.015625 L 6.265625 -16.015625 C 7.398438 -16.015625 8.546875 -15.816406 9.703125 -15.421875 C 10.359375 -15.210938 10.890625 -14.84375 11.296875 -14.3125 C 11.710938 -13.789062 11.921875 -13.15625 11.921875 -12.40625 C 11.921875 -11.382812 11.554688 -10.582031 10.828125 -10 C 10.097656 -9.425781 9.21875 -9.023438 8.1875 -8.796875 C 9.382812 -8.671875 10.457031 -8.300781 11.40625 -7.6875 C 11.90625 -7.351562 12.304688 -6.910156 12.609375 -6.359375 C 12.921875 -5.816406 13.078125 -5.191406 13.078125 -4.484375 Z M 9.9375 -12.40625 C 9.9375 -14.46875 8.300781 -15.5 5.03125 -15.5 L 5.03125 -8.953125 L 5.234375 -8.953125 C 8.367188 -8.953125 9.9375 -10.101562 9.9375 -12.40625 Z M 11.078125 -4.484375 C 11.078125 -7.160156 9.175781 -8.5 5.375 -8.5 L 5.03125 -8.5 L 5.03125 -4.828125 C 5.03125 -3.160156 5.078125 -2.070312 5.171875 -1.5625 C 5.273438 -1.050781 5.523438 -0.707031 5.921875 -0.53125 C 6.691406 -0.53125 7.398438 -0.617188 8.046875 -0.796875 C 8.691406 -0.984375 9.207031 -1.207031 9.59375 -1.46875 C 9.988281 -1.726562 10.332031 -2.113281 10.625 -2.625 C 10.925781 -3.144531 11.078125 -3.765625 11.078125 -4.484375 Z M 11.078125 -4.484375 "/></g></g></g><g fill="#d4d4d4" fill-opacity="1"><g transform="translate(133.809578, 287.745167)"><g/></g></g><g fill="#d4d4d4" fill-opacity="1"><g transform="translate(142.553732, 287.745167)"><g><path d="M 5.765625 -16.015625 C 8.390625 -16.015625 10.359375 -15.789062 11.671875 -15.34375 C 12.265625 -15.125 12.894531 -14.816406 13.5625 -14.421875 C 14.238281 -14.023438 14.785156 -13.550781 15.203125 -13 C 15.628906 -12.445312 15.984375 -11.742188 16.265625 -10.890625 C 16.546875 -10.035156 16.6875 -9.078125 16.6875 -8.015625 C 16.6875 -6.960938 16.546875 -6.007812 16.265625 -5.15625 C 15.984375 -4.3125 15.628906 -3.613281 15.203125 -3.0625 C 14.785156 -2.519531 14.269531 -2.046875 13.65625 -1.640625 C 13.039062 -1.234375 12.457031 -0.929688 11.90625 -0.734375 C 11.351562 -0.535156 10.742188 -0.375 10.078125 -0.25 C 9.171875 -0.0820312 8.242188 0 7.296875 0 L 1.140625 0 L 1.1875 -0.28125 C 1.945312 -0.28125 2.503906 -0.421875 2.859375 -0.703125 C 3.242188 -1.023438 3.4375 -2.515625 3.4375 -5.171875 L 3.4375 -10.84375 C 3.4375 -12.476562 3.382812 -13.597656 3.28125 -14.203125 C 3.1875 -14.804688 3.046875 -15.1875 2.859375 -15.34375 C 2.503906 -15.625 1.945312 -15.765625 1.1875 -15.765625 L 1.140625 -16.015625 Z M 5.890625 -0.546875 C 6.066406 -0.535156 6.441406 -0.53125 7.015625 -0.53125 C 7.585938 -0.53125 8.210938 -0.585938 8.890625 -0.703125 C 9.566406 -0.828125 10.269531 -1.0625 11 -1.40625 C 11.726562 -1.75 12.351562 -2.1875 12.875 -2.71875 C 13.40625 -3.257812 13.84375 -3.984375 14.1875 -4.890625 C 14.53125 -5.796875 14.703125 -6.832031 14.703125 -8 C 14.703125 -9.164062 14.53125 -10.195312 14.1875 -11.09375 C 13.851562 -12 13.421875 -12.722656 12.890625 -13.265625 C 12.359375 -13.804688 11.734375 -14.253906 11.015625 -14.609375 C 9.742188 -15.203125 8.347656 -15.5 6.828125 -15.5 C 6.140625 -15.5 5.539062 -15.453125 5.03125 -15.359375 L 5.03125 -4.90625 C 5.03125 -3.25 5.078125 -2.15625 5.171875 -1.625 C 5.265625 -1.09375 5.503906 -0.734375 5.890625 -0.546875 Z M 5.890625 -0.546875 "/></g></g></g><g fill="#d4d4d4" fill-opacity="1"><g transform="translate(163.061689, 287.745167)"><g><path d="M 12.6875 0 L 1.140625 0 L 1.1875 -0.28125 C 1.945312 -0.28125 2.503906 -0.421875 2.859375 -0.703125 C 3.242188 -1.023438 3.4375 -2.515625 3.4375 -5.171875 L 3.4375 -10.84375 C 3.4375 -12.476562 3.382812 -13.597656 3.28125 -14.203125 C 3.1875 -14.804688 3.046875 -15.1875 2.859375 -15.34375 C 2.503906 -15.625 1.945312 -15.765625 1.1875 -15.765625 L 1.140625 -16.015625 L 11.828125 -16.015625 L 11.828125 -12.734375 L 11.5625 -12.765625 C 11.5625 -13.796875 11.019531 -14.507812 9.9375 -14.90625 C 8.863281 -15.300781 7.222656 -15.5 5.015625 -15.5 L 5.015625 -8.28125 C 6.472656 -8.28125 7.523438 -8.359375 8.171875 -8.515625 C 8.816406 -8.671875 9.226562 -8.90625 9.40625 -9.21875 C 9.59375 -9.53125 9.6875 -10.050781 9.6875 -10.78125 L 9.9375 -10.828125 L 9.9375 -5.265625 L 9.6875 -5.3125 C 9.6875 -6.0625 9.59375 -6.585938 9.40625 -6.890625 C 9.226562 -7.191406 8.816406 -7.414062 8.171875 -7.5625 C 7.523438 -7.707031 6.472656 -7.78125 5.015625 -7.78125 L 5.015625 -4.828125 C 5.015625 -3.210938 5.070312 -2.132812 5.1875 -1.59375 C 5.300781 -1.0625 5.554688 -0.707031 5.953125 -0.53125 C 10.253906 -0.53125 12.40625 -1.441406 12.40625 -3.265625 L 12.6875 -3.3125 Z M 12.6875 0 "/></g></g></g><g fill="#d4d4d4" fill-opacity="1"><g transform="translate(180.182414, 287.745167)"><g><path d="M 4.671875 -15.015625 C 4.671875 -14.753906 4.6875 -14.550781 4.71875 -14.40625 C 4.757812 -14.257812 4.789062 -14.140625 4.8125 -14.046875 C 4.84375 -13.960938 4.878906 -13.835938 4.921875 -13.671875 C 4.960938 -13.515625 5.003906 -13.378906 5.046875 -13.265625 C 5.085938 -13.148438 5.144531 -12.984375 5.21875 -12.765625 C 5.289062 -12.554688 5.351562 -12.382812 5.40625 -12.25 C 5.46875 -12.113281 5.546875 -11.90625 5.640625 -11.625 C 5.742188 -11.351562 5.828125 -11.132812 5.890625 -10.96875 L 9.453125 -1.234375 L 12.84375 -10.96875 C 13.507812 -12.90625 13.84375 -14.117188 13.84375 -14.609375 C 13.84375 -15.097656 13.710938 -15.410156 13.453125 -15.546875 C 13.203125 -15.679688 12.753906 -15.75 12.109375 -15.75 L 12.0625 -16.015625 L 17.671875 -16.015625 L 17.625 -15.75 C 17.039062 -15.75 16.597656 -15.707031 16.296875 -15.625 C 16.003906 -15.550781 15.691406 -15.347656 15.359375 -15.015625 C 15.035156 -14.679688 14.738281 -14.207031 14.46875 -13.59375 C 14.195312 -12.988281 13.859375 -12.113281 13.453125 -10.96875 L 9.609375 0.109375 L 8.171875 0.109375 L 4.125 -10.96875 C 3.269531 -13.25 2.664062 -14.597656 2.3125 -15.015625 C 2.175781 -15.179688 1.988281 -15.332031 1.75 -15.46875 C 1.507812 -15.613281 1.28125 -15.695312 1.0625 -15.71875 C 0.84375 -15.738281 0.539062 -15.75 0.15625 -15.75 L 0.109375 -16.015625 L 6.296875 -16.015625 L 6.25 -15.75 C 5.664062 -15.75 5.253906 -15.691406 5.015625 -15.578125 C 4.785156 -15.472656 4.671875 -15.285156 4.671875 -15.015625 Z M 4.671875 -15.015625 "/></g></g></g><g fill="#d4d4d4" fill-opacity="1"><g transform="translate(200.987891, 287.745167)"><g><path d="M 12.6875 0 L 1.140625 0 L 1.1875 -0.28125 C 1.945312 -0.28125 2.503906 -0.421875 2.859375 -0.703125 C 3.242188 -1.023438 3.4375 -2.515625 3.4375 -5.171875 L 3.4375 -10.84375 C 3.4375 -12.476562 3.382812 -13.597656 3.28125 -14.203125 C 3.1875 -14.804688 3.046875 -15.1875 2.859375 -15.34375 C 2.503906 -15.625 1.945312 -15.765625 1.1875 -15.765625 L 1.140625 -16.015625 L 11.828125 -16.015625 L 11.828125 -12.734375 L 11.5625 -12.765625 C 11.5625 -13.796875 11.019531 -14.507812 9.9375 -14.90625 C 8.863281 -15.300781 7.222656 -15.5 5.015625 -15.5 L 5.015625 -8.28125 C 6.472656 -8.28125 7.523438 -8.359375 8.171875 -8.515625 C 8.816406 -8.671875 9.226562 -8.90625 9.40625 -9.21875 C 9.59375 -9.53125 9.6875 -10.050781 9.6875 -10.78125 L 9.9375 -10.828125 L 9.9375 -5.265625 L 9.6875 -5.3125 C 9.6875 -6.0625 9.59375 -6.585938 9.40625 -6.890625 C 9.226562 -7.191406 8.816406 -7.414062 8.171875 -7.5625 C 7.523438 -7.707031 6.472656 -7.78125 5.015625 -7.78125 L 5.015625 -4.828125 C 5.015625 -3.210938 5.070312 -2.132812 5.1875 -1.59375 C 5.300781 -1.0625 5.554688 -0.707031 5.953125 -0.53125 C 10.253906 -0.53125 12.40625 -1.441406 12.40625 -3.265625 L 12.6875 -3.3125 Z M 12.6875 0 "/></g></g></g><g fill="#d4d4d4" fill-opacity="1"><g transform="translate(218.108622, 287.745167)"><g><path d="M 12.109375 0 L 1.171875 0 L 1.21875 -0.28125 C 1.582031 -0.28125 1.875 -0.289062 2.09375 -0.3125 C 2.3125 -0.34375 2.507812 -0.425781 2.6875 -0.5625 C 2.875 -0.707031 3.007812 -0.867188 3.09375 -1.046875 C 3.1875 -1.222656 3.257812 -1.515625 3.3125 -1.921875 C 3.394531 -2.453125 3.4375 -3.535156 3.4375 -5.171875 L 3.4375 -10.84375 C 3.4375 -13.125 3.328125 -14.507812 3.109375 -15 C 2.910156 -15.425781 2.578125 -15.664062 2.109375 -15.71875 C 1.878906 -15.75 1.582031 -15.765625 1.21875 -15.765625 L 1.171875 -16.015625 L 7.328125 -16.015625 L 7.28125 -15.765625 C 6.519531 -15.765625 5.960938 -15.625 5.609375 -15.34375 C 5.222656 -15.019531 5.03125 -13.519531 5.03125 -10.84375 L 5.03125 -4.828125 C 5.03125 -3.179688 5.082031 -2.085938 5.1875 -1.546875 C 5.300781 -1.003906 5.554688 -0.640625 5.953125 -0.453125 C 9.890625 -0.453125 11.859375 -1.390625 11.859375 -3.265625 L 12.109375 -3.3125 Z M 12.109375 0 "/></g></g></g><g fill="#d4d4d4" fill-opacity="1"><g transform="translate(233.810375, 287.745167)"><g><path d="M 8.765625 -16.234375 C 11.222656 -16.234375 13.1875 -15.476562 14.65625 -13.96875 C 16.132812 -12.46875 16.875 -10.523438 16.875 -8.140625 C 16.875 -5.753906 16.160156 -3.757812 14.734375 -2.15625 C 13.304688 -0.5625 11.367188 0.234375 8.921875 0.234375 C 6.484375 0.234375 4.519531 -0.566406 3.03125 -2.171875 C 1.539062 -3.773438 0.796875 -5.769531 0.796875 -8.15625 C 0.796875 -10.550781 1.507812 -12.492188 2.9375 -13.984375 C 4.363281 -15.484375 6.304688 -16.234375 8.765625 -16.234375 Z M 8.90625 -0.296875 C 10.851562 -0.296875 12.332031 -1 13.34375 -2.40625 C 14.363281 -3.820312 14.875 -5.679688 14.875 -7.984375 C 14.875 -10.285156 14.335938 -12.144531 13.265625 -13.5625 C 12.203125 -14.988281 10.695312 -15.703125 8.75 -15.703125 C 6.8125 -15.703125 5.332031 -15 4.3125 -13.59375 C 3.300781 -12.1875 2.796875 -10.328125 2.796875 -8.015625 C 2.796875 -5.710938 3.328125 -3.847656 4.390625 -2.421875 C 5.460938 -1.003906 6.96875 -0.296875 8.90625 -0.296875 Z M 8.90625 -0.296875 "/></g></g></g><g fill="#d4d4d4" fill-opacity="1"><g transform="translate(254.50144, 287.745167)"><g><path d="M 7.140625 -16.015625 C 11.179688 -16.015625 13.203125 -14.476562 13.203125 -11.40625 C 13.203125 -10.039062 12.722656 -8.921875 11.765625 -8.046875 C 10.816406 -7.179688 9.6875 -6.75 8.375 -6.75 C 7.0625 -6.75 5.945312 -6.960938 5.03125 -7.390625 L 5.03125 -5.171875 C 5.03125 -3.535156 5.078125 -2.421875 5.171875 -1.828125 C 5.273438 -1.234375 5.421875 -0.859375 5.609375 -0.703125 C 5.960938 -0.421875 6.519531 -0.28125 7.28125 -0.28125 L 7.328125 0 L 1.140625 0 L 1.1875 -0.28125 C 1.945312 -0.28125 2.503906 -0.421875 2.859375 -0.703125 C 3.242188 -1.023438 3.4375 -2.515625 3.4375 -5.171875 L 3.4375 -10.84375 C 3.4375 -12.476562 3.382812 -13.59375 3.28125 -14.1875 C 3.1875 -14.78125 3.046875 -15.15625 2.859375 -15.3125 C 2.503906 -15.601562 1.945312 -15.75 1.1875 -15.75 L 1.140625 -16.015625 Z M 5.03125 -15.5 L 5.03125 -7.96875 C 5.820312 -7.539062 6.753906 -7.328125 7.828125 -7.328125 C 8.910156 -7.328125 9.78125 -7.664062 10.4375 -8.34375 C 11.09375 -9.019531 11.421875 -10.039062 11.421875 -11.40625 C 11.421875 -13.09375 10.875 -14.21875 9.78125 -14.78125 C 8.875 -15.257812 7.789062 -15.5 6.53125 -15.5 Z M 5.03125 -15.5 "/></g></g></g><g fill="#d4d4d4" fill-opacity="1"><g transform="translate(271.18732, 287.745167)"><g><path d="M 12.6875 0 L 1.140625 0 L 1.1875 -0.28125 C 1.945312 -0.28125 2.503906 -0.421875 2.859375 -0.703125 C 3.242188 -1.023438 3.4375 -2.515625 3.4375 -5.171875 L 3.4375 -10.84375 C 3.4375 -12.476562 3.382812 -13.597656 3.28125 -14.203125 C 3.1875 -14.804688 3.046875 -15.1875 2.859375 -15.34375 C 2.503906 -15.625 1.945312 -15.765625 1.1875 -15.765625 L 1.140625 -16.015625 L 11.828125 -16.015625 L 11.828125 -12.734375 L 11.5625 -12.765625 C 11.5625 -13.796875 11.019531 -14.507812 9.9375 -14.90625 C 8.863281 -15.300781 7.222656 -15.5 5.015625 -15.5 L 5.015625 -8.28125 C 6.472656 -8.28125 7.523438 -8.359375 8.171875 -8.515625 C 8.816406 -8.671875 9.226562 -8.90625 9.40625 -9.21875 C 9.59375 -9.53125 9.6875 -10.050781 9.6875 -10.78125 L 9.9375 -10.828125 L 9.9375 -5.265625 L 9.6875 -5.3125 C 9.6875 -6.0625 9.59375 -6.585938 9.40625 -6.890625 C 9.226562 -7.191406 8.816406 -7.414062 8.171875 -7.5625 C 7.523438 -7.707031 6.472656 -7.78125 5.015625 -7.78125 L 5.015625 -4.828125 C 5.015625 -3.210938 5.070312 -2.132812 5.1875 -1.59375 C 5.300781 -1.0625 5.554688 -0.707031 5.953125 -0.53125 C 10.253906 -0.53125 12.40625 -1.441406 12.40625 -3.265625 L 12.6875 -3.3125 Z M 12.6875 0 "/></g></g></g><g fill="#d4d4d4" fill-opacity="1"><g transform="translate(288.308051, 287.745167)"><g><path d="M 12.84375 0 C 12.457031 0 12.078125 -0.191406 11.703125 -0.578125 C 11.328125 -0.972656 10.988281 -1.457031 10.6875 -2.03125 C 10.394531 -2.613281 10.050781 -3.242188 9.65625 -3.921875 C 9.257812 -4.597656 8.863281 -5.234375 8.46875 -5.828125 C 8.070312 -6.429688 7.566406 -6.9375 6.953125 -7.34375 C 6.347656 -7.757812 5.703125 -7.984375 5.015625 -8.015625 L 5.015625 -5.171875 C 5.015625 -3.523438 5.0625 -2.40625 5.15625 -1.8125 C 5.257812 -1.226562 5.398438 -0.859375 5.578125 -0.703125 C 5.953125 -0.421875 6.519531 -0.28125 7.28125 -0.28125 L 7.328125 0 L 1.1875 0 L 1.234375 -0.28125 C 1.984375 -0.28125 2.535156 -0.414062 2.890625 -0.6875 C 3.171875 -0.914062 3.335938 -1.664062 3.390625 -2.9375 C 3.421875 -3.4375 3.4375 -4.179688 3.4375 -5.171875 L 3.4375 -10.96875 C 3.4375 -12.65625 3.390625 -13.773438 3.296875 -14.328125 C 3.203125 -14.878906 3.066406 -15.222656 2.890625 -15.359375 C 2.535156 -15.617188 1.984375 -15.75 1.234375 -15.75 L 1.1875 -16.015625 L 6.5 -16.015625 C 10.34375 -16.015625 12.265625 -14.71875 12.265625 -12.125 C 12.265625 -11.019531 11.867188 -10.085938 11.078125 -9.328125 C 10.296875 -8.566406 9.347656 -8.128906 8.234375 -8.015625 C 9.347656 -7.359375 10.378906 -6.148438 11.328125 -4.390625 C 11.691406 -3.703125 12.082031 -3.046875 12.5 -2.421875 C 13.394531 -0.992188 14.554688 -0.28125 15.984375 -0.28125 L 16.015625 0 Z M 5.015625 -15.5 L 5.015625 -8.46875 L 6.453125 -8.46875 C 7.609375 -8.46875 8.566406 -8.765625 9.328125 -9.359375 C 10.097656 -9.953125 10.484375 -10.835938 10.484375 -12.015625 C 10.484375 -14.335938 9.15625 -15.5 6.5 -15.5 Z M 5.015625 -15.5 "/></g></g></g></svg>